<?xml version="1.0" standalone="no"?>
<!DOCTYPE svg PUBLIC "-//W3C//DTD SVG 20010904//EN"
 "http://www.w3.org/TR/2001/REC-SVG-20010904/DTD/svg10.dtd">
<svg version="1.0" xmlns="http://www.w3.org/2000/svg"
 width="1000.000000pt" height="1000.000000pt" viewBox="0 0 1000.000000 1000.000000"
 preserveAspectRatio="xMidYMid meet">
<metadata>
Created by potrace 1.11, written by Peter Selinger 2001-2013
</metadata>
<g transform="translate(0.000000,1000.000000) scale(0.100000,-0.100000)"
fill="#000000" stroke="none">
<path d="M4739 9996 c-2 -2 -53 -7 -114 -10 -60 -4 -119 -9 -130 -11 -11 -2
-45 -7 -75 -9 -112 -11 -402 -60 -540 -92 -589 -136 -1147 -378 -1660 -719
-226 -150 -306 -215 -314 -257 -3 -18 -15 -62 -26 -98 -19 -61 -167 -577 -175
-610 -5 -21 -182 -642 -205 -720 -22 -74 -340 -1187 -346 -1210 -2 -8 -13 -49
-25 -90 -11 -41 -24 -88 -29 -105 -24 -90 -183 -643 -204 -710 -15 -50 -15
-80 1 -80 6 0 96 81 200 181 103 99 211 203 239 230 29 27 139 133 245 235
202 194 221 212 508 487 96 92 184 176 195 187 39 38 161 150 250 230 49 44
94 85 100 90 65 59 243 209 331 279 61 48 118 94 128 102 52 43 305 208 393
257 249 139 421 188 634 182 359 -9 646 -180 748 -445 57 -148 62 -301 16
-495 -47 -200 -190 -444 -324 -555 -24 -19 -48 -40 -54 -45 -57 -53 -188 -119
-291 -145 -161 -41 -408 -10 -533 67 -53 33 -130 122 -161 185 -32 68 -46 116
-86 290 -43 191 -82 250 -169 253 -82 4 -187 -40 -321 -133 -122 -85 -165
-121 -410 -347 -97 -89 -112 -104 -286 -267 -63 -58 -124 -115 -137 -126 l-22
-19 44 -84 c24 -46 148 -291 276 -544 128 -253 294 -581 370 -730 76 -148 229
-450 340 -670 329 -649 363 -708 470 -816 94 -95 154 -121 275 -122 67 0 89 4
137 27 110 54 229 205 298 381 13 33 27 65 31 70 4 6 15 38 24 73 17 61 18 62
54 63 51 0 220 0 257 0 l31 -1 -8 -42 c-5 -24 -10 -53 -13 -64 -2 -12 -7 -37
-10 -55 -19 -122 -117 -387 -206 -556 -208 -398 -512 -716 -845 -885 -84 -43
-265 -113 -265 -103 0 2 -11 0 -25 -5 -14 -5 -44 -12 -67 -15 -24 -3 -59 -8
-78 -10 -99 -14 -280 -4 -410 21 -112 21 -110 21 -185 47 -290 100 -524 310
-747 667 -121 194 -208 367 -413 815 -76 165 -155 338 -176 383 -22 46 -39 86
-39 88 0 2 -25 56 -55 119 -30 64 -55 118 -55 120 0 2 -18 42 -40 89 -65 139
-111 239 -200 438 -47 103 -87 187 -90 188 -3 0 -23 -62 -43 -138 -51 -185
-49 -177 -187 -672 -244 -874 -231 -824 -216 -867 82 -224 245 -552 409 -818
104 -171 293 -437 376 -530 14 -16 37 -43 49 -60 93 -119 423 -455 572 -580
45 -38 88 -75 94 -80 34 -32 288 -220 381 -282 100 -67 303 -193 310 -193 3 0
23 -11 44 -24 59 -38 322 -168 456 -226 304 -132 723 -264 970 -306 17 -2 37
-7 45 -9 20 -6 58 -12 165 -30 174 -28 173 -27 179 -8 13 45 338 1180 341
1193 2 8 41 148 88 310 46 162 87 304 90 315 3 11 116 407 252 880 136 473
248 867 250 875 2 8 75 265 163 570 87 305 162 564 165 575 3 11 38 133 77
270 40 138 76 264 80 280 4 17 37 131 73 255 36 124 72 250 80 280 8 30 33
118 55 195 39 134 71 253 77 285 18 91 36 197 41 232 2 24 7 54 10 68 13 53
12 257 0 320 -37 193 -153 290 -376 317 -30 3 -157 7 -282 7 -126 0 -228 3
-228 6 0 15 103 310 109 311 3 0 346 2 761 4 415 2 784 6 820 9 36 2 119 7
185 11 66 4 136 8 155 9 19 2 73 6 120 10 47 4 97 9 111 12 33 5 79 11 159 19
36 4 68 9 71 10 3 2 28 7 55 10 56 7 308 63 341 76 16 6 23 5 23 -3 0 -11 -92
-349 -146 -537 -13 -46 -26 -93 -29 -105 -3 -11 -11 -43 -19 -71 -42 -151 -98
-353 -102 -370 -2 -11 -17 -64 -33 -117 -16 -53 -26 -100 -23 -103 12 -12 22
-2 58 58 208 345 450 646 664 827 134 114 326 235 437 276 26 9 53 21 58 24 6
4 35 15 65 25 30 10 59 21 64 25 14 14 -219 345 -373 530 -224 268 -556 587
-796 767 -17 12 -70 51 -118 87 -48 37 -92 66 -97 66 -4 0 -10 3 -12 8 -1 4
-28 24 -58 43 -389 255 -755 434 -1175 577 -108 37 -358 111 -400 118 -16 3
-55 11 -85 18 -30 8 -73 17 -95 22 -22 4 -44 8 -50 9 -54 12 -128 25 -165 30
-25 3 -52 8 -60 10 -13 3 -101 15 -155 20 -131 13 -164 17 -190 21 -34 6 -661
15 -666 10z"/>
<path d="M9095 7022 c-154 -13 -285 -62 -440 -166 -302 -202 -610 -655 -863
-1271 -70 -172 -225 -622 -247 -720 -2 -11 -24 -96 -49 -190 -63 -241 -113
-484 -142 -690 -3 -27 -8 -59 -10 -69 -19 -104 -25 -449 -12 -626 17 -222 55
-371 131 -513 98 -184 263 -275 477 -264 178 9 333 86 498 250 392 386 765
1234 1028 2337 45 185 41 170 78 350 13 69 30 152 35 185 6 33 13 69 15 80 2
11 9 56 16 100 7 44 13 87 15 95 5 27 21 155 32 250 9 85 10 355 1 400 -4 19
-10 46 -13 59 -16 82 -77 204 -128 260 -35 37 -127 95 -182 114 -70 23 -168
36 -240 29z"/>
<path d="M6976 3103 c-28 -98 -249 -903 -305 -1113 -11 -41 -45 -167 -76 -280
-31 -113 -58 -212 -60 -220 -2 -8 -41 -148 -85 -310 -45 -162 -83 -302 -85
-310 -5 -21 -83 -308 -95 -350 -17 -59 -70 -254 -75 -277 -3 -12 -14 -49 -24
-82 -18 -59 -18 -66 4 -61 6 1 19 4 30 6 136 27 455 130 670 216 430 173 916
455 1240 719 229 187 375 323 575 535 82 87 290 335 290 346 0 2 -50 -6 -111
-18 -60 -13 -145 -26 -187 -30 -42 -3 -86 -8 -97 -10 -30 -6 -281 -5 -355 1
-124 10 -164 16 -239 31 -274 55 -484 176 -632 362 -149 186 -242 405 -349
820 -11 44 -25 54 -34 25z"/>
</g>
</svg>
