<?xml version="1.0" encoding="utf-8"?>
<!-- Generator: Adobe Illustrator 19.1.0, SVG Export Plug-In . SVG Version: 6.00 Build 0)  -->
<svg version="1.1" id="Layer_1" xmlns="http://www.w3.org/2000/svg" xmlns:xlink="http://www.w3.org/1999/xlink" x="0px" y="0px"
	 viewBox="0 0 219.6 12" style="enable-background:new 0 0 219.6 12;" xml:space="preserve">
<style type="text/css">
	.st0{fill:#D32363;}
</style>
<g>
	<path class="st0" d="M0,12V0h7.7v1.6H1.8v3.5h5v1.6h-5v3.6h5.8V12H0z"/>
	<path class="st0" d="M17.2,12l-2.6-4.6L12,12H9.9l3.7-6.2L10.2,0h2.1l2.4,4.3L17,0h2.1l-3.5,5.8l3.7,6.2H17.2z"/>
	<path class="st0" d="M26.8,7.3h-2.7V12h-1.8V0h4.6c2.3,0,3.8,1.6,3.8,3.6S29.2,7.3,26.8,7.3z M26.7,1.6h-2.6v4h2.6
		c1.3,0,2.1-0.7,2.1-2S28,1.6,26.7,1.6z"/>
	<path class="st0" d="M34.1,12V0h7.7v1.6h-5.8v3.5h5v1.6h-5v3.6h5.8V12H34.1z"/>
	<path class="st0" d="M52,12l-2.5-5.1h-2.3V12h-1.8V0h4.7c2.3,0,3.7,1.5,3.7,3.5c0,1.7-1,2.8-2.4,3.2l2.8,5.3H52z M49.9,1.6h-2.7
		v3.8h2.7c1.2,0,2-0.7,2-1.9S51.1,1.6,49.9,1.6z"/>
	<path class="st0" d="M57.6,12V0h1.8v12H57.6z"/>
	<path class="st0" d="M63.8,12V0h7.7v1.6h-5.8v3.5h5v1.6h-5v3.6h5.8V12H63.8z"/>
	<path class="st0" d="M82.5,12l-5.5-8.4V12h-1.8V0h1.7l5.5,8.4V0h1.8v12H82.5z"/>
	<path class="st0" d="M92.5,1.6V12h-1.8V1.6h-3.3V0h8.4v1.6H92.5z"/>
	<path class="st0" d="M99.1,12V0h1.8v12H99.1z"/>
	<path class="st0" d="M112.1,12l-0.8-2.4h-4.7l-0.8,2.4h-1.9l4.4-12h1.5l4.4,12H112.1z M109,2.7L107.1,8h3.7L109,2.7z"/>
	<path class="st0" d="M116.9,12V0h1.8v10.4h5.8V12H116.9z"/>
	<path class="st0" d="M140.3,10.8c-0.8,0.8-1.9,1.1-3.1,1.1H133V0h4.2c1.2,0,2.3,0.4,3.1,1.1c1.3,1.3,1.2,3.1,1.2,4.8
		C141.5,7.6,141.6,9.5,140.3,10.8z M139.1,2.4c-0.5-0.6-1.2-0.8-2-0.8h-2.2v8.7h2.2c0.9,0,1.5-0.3,2-0.8c0.6-0.7,0.6-2,0.6-3.6
		C139.7,4.2,139.7,3.1,139.1,2.4z"/>
	<path class="st0" d="M145.4,12V0h7.7v1.6h-5.8v3.5h5v1.6h-5v3.6h5.8V12H145.4z"/>
	<path class="st0" d="M160,12.1c-1.8,0-3.1-0.4-4.2-1.6l1.2-1.2c0.9,0.9,1.8,1.1,3.1,1.1c1.6,0,2.5-0.7,2.5-1.8c0-0.5-0.2-1-0.5-1.2
		c-0.3-0.3-0.6-0.4-1.3-0.5l-1.4-0.2c-1-0.1-1.8-0.5-2.3-1c-0.6-0.6-0.9-1.3-0.9-2.3c0-2.1,1.5-3.5,4-3.5c1.6,0,2.7,0.4,3.7,1.4
		l-1.2,1.1c-0.7-0.7-1.6-0.9-2.6-0.9c-1.4,0-2.2,0.8-2.2,1.9c0,0.4,0.1,0.8,0.5,1.1c0.3,0.3,0.8,0.5,1.3,0.6l1.4,0.2
		c1.1,0.2,1.7,0.4,2.2,0.9c0.7,0.6,1,1.4,1,2.5C164.3,10.8,162.5,12.1,160,12.1z"/>
	<path class="st0" d="M167.9,12V0h1.8v12H167.9z"/>
	<path class="st0" d="M181.2,10.7c-0.9,1-2,1.4-3.3,1.4c-1.2,0-2.3-0.5-3.2-1.3c-1.2-1.2-1.2-2.5-1.2-4.8c0-2.3,0-3.6,1.2-4.8
		c0.8-0.8,1.9-1.3,3.2-1.3c2.5,0,4,1.7,4.4,3.7h-1.8c-0.3-1.3-1.2-2.1-2.5-2.1c-0.7,0-1.3,0.3-1.8,0.7c-0.6,0.6-0.7,1.3-0.7,3.7
		s0.1,3.1,0.7,3.7c0.4,0.5,1.1,0.7,1.8,0.7c0.8,0,1.5-0.3,2-0.8c0.4-0.5,0.6-1.1,0.6-1.9V7h-2.6V5.5h4.4v1.8
		C182.3,8.9,182,9.9,181.2,10.7z"/>
	<path class="st0" d="M193.5,12L188,3.5V12h-1.8V0h1.7l5.5,8.4V0h1.8v12H193.5z"/>
	<path class="st0" d="M199.5,12V0h7.7v1.6h-5.8v3.5h5v1.6h-5v3.6h5.8V12H199.5z"/>
	<path class="st0" d="M217.5,12L215,6.9h-2.3V12h-1.8V0h4.7c2.3,0,3.7,1.5,3.7,3.5c0,1.7-1,2.8-2.4,3.2l2.8,5.3H217.5z M215.4,1.6
		h-2.7v3.8h2.7c1.2,0,2-0.7,2-1.9S216.6,1.6,215.4,1.6z"/>
</g>
</svg>
