<?xml version="1.0" encoding="utf-8"?>
<!-- Generator: Adobe Illustrator 19.1.0, SVG Export Plug-In . SVG Version: 6.00 Build 0)  -->
<svg version="1.1" id="Layer_1" xmlns="http://www.w3.org/2000/svg" xmlns:xlink="http://www.w3.org/1999/xlink" x="0px" y="0px"
	 viewBox="0 0 33 33" style="enable-background:new 0 0 33 33;" xml:space="preserve">
<style type="text/css">
	.st0{fill:#F6EB25;}
	.st1{fill:#FFFFFF;}
	.st2{opacity:0.9;}
	.st3{fill:#2D2D2D;}
	.st4{opacity:0.9;fill:#2D2D2D;}
</style>
<g>
	<g>
		<g class="st2">
			<path class="st3" d="M17.9,13.8c-0.4-0.2-0.9-0.3-1.4-0.3c-0.5,0-0.9,0.1-1.4,0.3c-0.3,0.1-0.6,0.3-0.8,0.5
				c-0.7,0.6-1.1,1.5-1.1,2.5c0,1.8,1.5,3.3,3.3,3.3c1.8,0,3.3-1.5,3.3-3.3c0-1-0.4-1.9-1.1-2.5C18.4,14.1,18.1,14,17.9,13.8z"/>
		</g>
		<g class="st2">
			<path class="st3" d="M16.5,12.6c1.2,0,2.3,0.5,3.1,1.3h5.3v-2.2h0c0-1.8-1.5-3.3-3.3-3.3h-9.1h-0.7h-0.4h-0.1c0,0-0.3,0-0.7,0.1
				C10.3,8.5,10,8.6,9.5,8.9c-0.8,0.6-1.4,1.6-1.4,2.7v2.2h5.3C14.2,13,15.3,12.6,16.5,12.6z M20.5,10.3c0-0.3,0.2-0.5,0.5-0.5h1.8
				c0.3,0,0.5,0.2,0.5,0.5v1.8c0,0.3-0.2,0.5-0.5,0.5H21c-0.3,0-0.5-0.2-0.5-0.5V10.3z"/>
		</g>
		<g class="st2">
			<path class="st3" d="M20.4,15.2c0.2,0.5,0.4,1.1,0.4,1.7c0,2.4-1.9,4.3-4.3,4.3c-2.4,0-4.3-1.9-4.3-4.3c0-0.6,0.1-1.2,0.4-1.7
				H8.1v6.7c0,1.8,1.5,3.3,3.3,3.3h10.1c1.8,0,3.3-1.5,3.3-3.3v-6.7H20.4z"/>
		</g>
	</g>
</g>
</svg>
