<?xml version="1.0" encoding="utf-8"?>
<!-- Generator: Adobe Illustrator 19.1.0, SVG Export Plug-In . SVG Version: 6.00 Build 0)  -->
<svg version="1.1" id="Layer_1" xmlns="http://www.w3.org/2000/svg" xmlns:xlink="http://www.w3.org/1999/xlink" x="0px" y="0px"
	 viewBox="0 0 33 33" style="enable-background:new 0 0 33 33;" xml:space="preserve">
<style type="text/css">
	.st0{fill:#F6EB25;}
	.st1{fill:#FFFFFF;}
	.st2{opacity:0.9;}
	.st3{fill:#2D2D2D;}
	.st4{opacity:0.9;fill:#2D2D2D;}
</style>
<path class="st4" d="M8,9.8c0-1.2,0.9-2.1,2.1-2.1s2.1,0.9,2.1,2.1s-0.9,2.1-2.1,2.1S8,11,8,9.8z M11.8,13.4H8.3v11.4h3.5V13.4z
	 M24.3,14.7c-0.7-0.9-1.7-1.7-3.2-1.7c-1.5,0-2.9,0.7-3.6,1.9v-1.5h-3.4v11.4h3.4v-4.9v-0.8c0-0.6-0.1-2.8,2.1-2.8
	c0,0,0.7-0.1,1.3,0.4c0.5,0.5,0.7,1.2,0.7,2.4v5.7H25v-5.7c0,0,0-0.8,0-1.3S25,15.7,24.3,14.7z"/>
</svg>
