<?xml version="1.0" encoding="utf-8"?>
<!-- Generator: Adobe Illustrator 19.1.0, SVG Export Plug-In . SVG Version: 6.00 Build 0)  -->
<svg version="1.1" id="Layer_1" xmlns="http://www.w3.org/2000/svg" xmlns:xlink="http://www.w3.org/1999/xlink" x="0px" y="0px"
	 viewBox="0 0 92 87" style="enable-background:new 0 0 92 87;" xml:space="preserve">
<style type="text/css">
	.st0{fill:#F6EB25;}
</style>
<g>
	<path class="st0" d="M61,55.8c0,5,0.9,9.4,5.2,9.4c9.4,0,15.3-27.3,15.3-33.8c0-3.1-1.3-5.5-4.6-5.5C67,25.9,61,48.7,61,55.8z"/>
	<path class="st0" d="M50.6,33.8c0.5-1.6,1-4.1,1-5.9c0-3.4-2.1-3.9-4.6-3.9h-3.3l1-2.8h8.6c6.3,0,12.2-0.4,15.8-1.5l-3.2,11.4
		l0.2,0.1c3.1-5.1,6.3-9.2,11.7-10.8C70.1,8.1,56.4,0,40.9,0C30.7,0,21.4,3.5,14,9.2L5,41l0.2,0.2l12-11.5c5.6-5.2,11.1-10,15.7-10
		c3.7,0,7.3,2,7.3,6.1c0,4-3.2,8.7-7.5,8.7c-3.6,0-4.6-1.7-5.1-3.6c-0.5-1.7-0.5-3.6-1.8-3.6c-1.3,0-3.2,1.3-4.9,2.9l-5.3,4.9
		l10,19.7c2.3,4.5,3.2,6.1,5.6,6.1c2.4,0,3.8-3.6,4.3-5.4h2.8c-0.9,6.8-6.8,15.2-14.2,15.2c-6.8,0-9.9-4.1-13.2-11.3L4,44.8L0,59.2
		C5.6,74,19.1,85,35.3,87L50.6,33.8z"/>
	<path class="st0" d="M70.6,70.9c-8,0-10.6-3.6-12.3-11h-0.2l-7.2,26.3c10-2.3,18.6-8.1,24.7-16C74,70.6,72.3,70.9,70.6,70.9z"/>
</g>
</svg>
